<?xml version="1.0" encoding="UTF-8" standalone="no"?>
<svg xmlns="http://www.w3.org/2000/svg" width="900" height="520" viewBox="0 0 900 520">
<text x="450.0" y="45" text-anchor="middle" font-family="Arial" font-size="18">Resource Utilization: ZU3EG L=11 K=5 M=3</text>
<line x1="80" y1="70" x2="80" y2="450" stroke="#000" stroke-width="1.5"/>
<line x1="80" y1="450" x2="820" y2="450" stroke="#000" stroke-width="1.5"/>
<line x1="820" y1="450" x2="820" y2="70" stroke="#000" stroke-width="1.5"/>
<line x1="820" y1="70" x2="80" y2="70" stroke="#000" stroke-width="1.5"/>
<line x1="80" y1="450.0" x2="820" y2="450.0" stroke="#ddd" stroke-width="1"/>
<text x="70" y="454.0" text-anchor="end" font-family="Arial" font-size="12">0</text>
<line x1="80" y1="374.0" x2="820" y2="374.0" stroke="#ddd" stroke-width="1"/>
<text x="70" y="378.0" text-anchor="end" font-family="Arial" font-size="12">18</text>
<line x1="80" y1="298.0" x2="820" y2="298.0" stroke="#ddd" stroke-width="1"/>
<text x="70" y="302.0" text-anchor="end" font-family="Arial" font-size="12">36</text>
<line x1="80" y1="222.0" x2="820" y2="222.0" stroke="#ddd" stroke-width="1"/>
<text x="70" y="226.0" text-anchor="end" font-family="Arial" font-size="12">55</text>
<line x1="80" y1="146.0" x2="820" y2="146.0" stroke="#ddd" stroke-width="1"/>
<text x="70" y="150.0" text-anchor="end" font-family="Arial" font-size="12">73</text>
<line x1="80" y1="70.0" x2="820" y2="70.0" stroke="#ddd" stroke-width="1"/>
<text x="70" y="74.0" text-anchor="end" font-family="Arial" font-size="12">92</text>
<text x="180.0" y="470" text-anchor="middle" font-family="Arial" font-size="12">LUT</text>
<rect x="103.0" y="359.1304347826087" width="34" height="90.86956521739131" fill="#0072B2" />
<rect x="143.0" y="350.8695652173913" width="34" height="99.13043478260869" fill="#D55E00" />
<rect x="183.0" y="255.86956521739128" width="34" height="194.13043478260872" fill="#009E73" />
<rect x="223.0" y="255.86956521739128" width="34" height="194.13043478260872" fill="#CC79A7" />
<text x="360.0" y="470" text-anchor="middle" font-family="Arial" font-size="12">REG</text>
<rect x="283.0" y="450.0" width="34" height="0.0" fill="#0072B2" />
<rect x="323.0" y="450.0" width="34" height="0.0" fill="#D55E00" />
<rect x="363.0" y="70.0" width="34" height="380.0" fill="#009E73" />
<rect x="403.0" y="70.0" width="34" height="380.0" fill="#CC79A7" />
<text x="540.0" y="470" text-anchor="middle" font-family="Arial" font-size="12">BRAM_18K</text>
<rect x="463.0" y="450.0" width="34" height="0.0" fill="#0072B2" />
<rect x="503.0" y="450.0" width="34" height="0.0" fill="#D55E00" />
<rect x="543.0" y="450.0" width="34" height="0.0" fill="#009E73" />
<rect x="583.0" y="450.0" width="34" height="0.0" fill="#CC79A7" />
<text x="720.0" y="470" text-anchor="middle" font-family="Arial" font-size="12">DSP</text>
<rect x="643.0" y="450.0" width="34" height="0.0" fill="#0072B2" />
<rect x="683.0" y="450.0" width="34" height="0.0" fill="#D55E00" />
<rect x="723.0" y="450.0" width="34" height="0.0" fill="#009E73" />
<rect x="763.0" y="450.0" width="34" height="0.0" fill="#CC79A7" />
<rect x="662" y="72" width="140" height="96" fill="#ffffff" stroke="#000" stroke-width="0.5" rx="6" ry="6" opacity="0.95"/>
<rect x="670" y="80" width="12" height="12" fill="#0072B2" />
<text x="688" y="91" font-family="Arial" font-size="12">CS-ENC</text>
<rect x="670" y="98" width="12" height="12" fill="#D55E00" />
<text x="688" y="109" font-family="Arial" font-size="12">CS-DEC</text>
<rect x="670" y="116" width="12" height="12" fill="#009E73" />
<text x="688" y="127" font-family="Arial" font-size="12">RS-ENC</text>
<rect x="670" y="134" width="12" height="12" fill="#CC79A7" />
<text x="688" y="145" font-family="Arial" font-size="12">RS-DEC</text>
</svg>